<svg width="31" height="33" viewBox="0 0 31 33" fill="none" xmlns="http://www.w3.org/2000/svg">
<path d="M29.2028 24.9407L27.8991 22.9259C25.6473 19.6074 24.4621 15.6963 24.4621 11.6667C24.4621 7.4 21.6177 3.96296 17.8251 2.77778C17.4695 1.71111 16.4028 1 15.2177 1C14.0325 1 12.9658 1.71111 12.6103 2.77778C8.81766 3.96296 5.97322 7.4 5.97322 11.6667C5.97322 15.6963 4.78803 19.6074 2.53618 22.9259L1.23248 24.9407C0.639884 25.8889 1.23248 27.0741 2.41766 27.0741H28.0177C29.2028 27.0741 29.7954 25.8889 29.2028 24.9407Z" stroke="#24252C" stroke-width="2" stroke-miterlimit="10" stroke-linecap="round" stroke-linejoin="round"/>
<path d="M19.9585 27.0741C19.9585 29.6815 17.8252 31.8148 15.2178 31.8148C12.6104 31.8148 10.4771 29.6815 10.4771 27.0741" stroke="#24252C" stroke-width="2" stroke-miterlimit="10" stroke-linecap="round" stroke-linejoin="round"/>
</svg>
