<svg width="45" height="40" viewBox="0 0 45 40" fill="none" xmlns="http://www.w3.org/2000/svg">
<path d="M24.8238 32.0699H9.84102C9.48948 32.0685 9.1524 31.9297 8.90182 31.6832C8.65124 31.4366 8.50703 31.1019 8.5 30.7504V9.27259C8.5 8.91694 8.64129 8.57584 8.89277 8.32435C9.14426 8.07286 9.48536 7.93158 9.84102 7.93158H31.2973C31.653 7.93158 31.994 8.07286 32.2455 8.32435C32.497 8.57584 32.6383 8.91694 32.6383 9.27259V21.3363" stroke="black" stroke-width="2"/>
<path d="M8.5 14.6899H32.6383" stroke="black" stroke-width="2"/>
<path d="M14.2937 7.93106V6" stroke="black" stroke-width="2"/>
<path d="M26.8447 7.93106V6" stroke="black" stroke-width="2"/>
<path d="M29.7414 34C33.4741 34 36.5001 30.974 36.5001 27.2413C36.5001 23.5085 33.4741 20.4825 29.7414 20.4825C26.0087 20.4825 22.9827 23.5085 22.9827 27.2413C22.9827 30.974 26.0087 34 29.7414 34Z" stroke="black" stroke-width="2"/>
<path d="M29.7419 22.4141V27.3611L32.6385 29.1728" stroke="black" stroke-width="2"/>
</svg>
