<svg width="21" height="20" viewBox="0 0 21 20" fill="none" xmlns="http://www.w3.org/2000/svg">
<path d="M17.6427 9.07396H17.6417L11.669 2.98466C11.3568 2.679 10.9374 2.50781 10.5005 2.50781C10.0637 2.50781 9.64419 2.679 9.33206 2.98466L3.35746 9.07396C3.18497 9.25053 3.06852 9.47415 3.02272 9.7167C2.97692 9.95926 3.00383 10.2099 3.10006 10.4373C3.19124 10.6622 3.34787 10.8546 3.54967 10.9896C3.75146 11.1245 3.98912 11.1957 4.23186 11.1941L4.26416 15.8226C4.26182 16.2622 4.43388 16.6847 4.74261 16.9977C5.05135 17.3106 5.47158 17.4884 5.91116 17.492H8.00006C8.13267 17.492 8.25985 17.4393 8.35362 17.3455C8.44739 17.2517 8.50006 17.1246 8.50006 16.992V11.992C8.50022 11.8594 8.55295 11.7323 8.64669 11.6386C8.74042 11.5448 8.8675 11.4921 9.00006 11.492H12.0001C12.1326 11.4921 12.2597 11.5448 12.3534 11.6386C12.4472 11.7323 12.4999 11.8594 12.5001 11.992V16.992C12.5001 17.1246 12.5527 17.2517 12.6465 17.3455C12.7403 17.4393 12.8675 17.492 13.0001 17.492H15.089C15.5286 17.4885 15.9489 17.3108 16.2578 16.9978C16.5666 16.6849 16.7387 16.2622 16.7364 15.8226V11.1941H16.7687C17.0113 11.1957 17.2489 11.1244 17.4506 10.9895C17.6523 10.8545 17.8089 10.6622 17.9001 10.4373C17.9963 10.2099 18.0232 9.95926 17.9774 9.7167C17.9316 9.47415 17.8152 9.25053 17.6427 9.07396ZM16.9786 10.0496C16.9629 10.0925 16.9343 10.1294 16.8966 10.1553C16.859 10.1812 16.8142 10.1948 16.7686 10.1941H16.2363C16.1037 10.1941 15.9765 10.2467 15.8827 10.3405C15.7889 10.4343 15.7363 10.5614 15.7363 10.6941V15.8226C15.739 15.9971 15.6724 16.1656 15.551 16.2911C15.4296 16.4166 15.2634 16.4889 15.0889 16.492H13.5001V11.992C13.4996 11.5943 13.3414 11.213 13.0602 10.9318C12.779 10.6506 12.3978 10.4924 12.0001 10.492H9.00006C8.60238 10.4924 8.22111 10.6506 7.9399 10.9318C7.65869 11.213 7.50051 11.5943 7.50006 11.992V16.492H5.91116C5.73661 16.4889 5.57041 16.4166 5.44904 16.2911C5.32767 16.1656 5.26103 15.9971 5.26376 15.8226V10.6941C5.26376 10.5614 5.21109 10.4343 5.11732 10.3405C5.02355 10.2467 4.89637 10.1941 4.76376 10.1941H4.23146C4.18579 10.1948 4.14103 10.1812 4.1034 10.1553C4.06577 10.1294 4.03713 10.0925 4.02146 10.0496C4.00083 10.0039 3.99457 9.9531 4.0035 9.90382C4.01243 9.85454 4.03613 9.80915 4.07146 9.77366L10.046 3.68486C10.167 3.56516 10.3303 3.49803 10.5006 3.49803C10.6708 3.49803 10.8341 3.56516 10.9552 3.68486L16.9288 9.77366C16.9641 9.80918 16.9877 9.85458 16.9966 9.90386C17.0055 9.95313 16.9992 10.0039 16.9786 10.0496Z" fill="#194DB6"/>
</svg>
