<svg width="40" height="40" viewBox="0 0 40 40" fill="none" xmlns="http://www.w3.org/2000/svg">
<path d="M16.5152 13.2727H10.1515C9.56579 13.2727 9.09094 13.7297 9.09094 14.2935V31.6459C9.09094 32.2097 9.56579 32.6667 10.1515 32.6667H16.5152C17.1009 32.6667 17.5758 32.2097 17.5758 31.6459V14.2935C17.5758 13.7297 17.1009 13.2727 16.5152 13.2727Z" stroke="black" stroke-width="2" stroke-linejoin="round"/>
<path d="M22.6263 6H18.5859C18.028 6 17.5758 6.45919 17.5758 7.02564V31.641C17.5758 32.2075 18.028 32.6667 18.5859 32.6667H22.6263C23.1842 32.6667 23.6364 32.2075 23.6364 31.641V7.02564C23.6364 6.45919 23.1842 6 22.6263 6Z" stroke="black" stroke-width="2" stroke-linejoin="round"/>
<path d="M27.3016 9.64311L24.7685 9.90908C24.0713 9.98231 23.566 10.6332 23.6444 11.3548L25.8338 31.4809C25.9128 32.2025 26.5467 32.7326 27.2439 32.66L29.7769 32.394C30.4741 32.3208 30.9794 31.6699 30.9011 30.9483L28.7148 10.8253C28.6326 10.1006 27.9988 9.56988 27.3016 9.64311Z" stroke="black" stroke-width="2" stroke-linejoin="round"/>
<path d="M9.09094 34H20.3892" stroke="black" stroke-width="2" stroke-linecap="round" stroke-linejoin="round"/>
</svg>
