<svg width="40" height="40" viewBox="0 0 40 40" fill="none" xmlns="http://www.w3.org/2000/svg">
<path d="M15.9998 8H9.33309C8.59671 8 7.99976 8.59695 7.99976 9.33333V18.6667C7.99976 19.403 8.59671 20 9.33309 20H15.9998C16.7361 20 17.3331 19.403 17.3331 18.6667V9.33333C17.3331 8.59695 16.7361 8 15.9998 8Z" stroke="#0C1521" stroke-width="2" stroke-linecap="round" stroke-linejoin="round"/>
<path d="M30.667 8H24.0003C23.2639 8 22.667 8.59695 22.667 9.33333V13.3333C22.667 14.0697 23.2639 14.6667 24.0003 14.6667H30.667C31.4034 14.6667 32.0003 14.0697 32.0003 13.3333V9.33333C32.0003 8.59695 31.4034 8 30.667 8Z" stroke="#0C1521" stroke-width="2" stroke-linecap="round" stroke-linejoin="round"/>
<path d="M30.667 20H24.0003C23.2639 20 22.667 20.597 22.667 21.3333V30.6667C22.667 31.403 23.2639 32 24.0003 32H30.667C31.4034 32 32.0003 31.403 32.0003 30.6667V21.3333C32.0003 20.597 31.4034 20 30.667 20Z" stroke="#0C1521" stroke-width="2" stroke-linecap="round" stroke-linejoin="round"/>
<path d="M15.9998 25.3332H9.33309C8.59671 25.3332 7.99976 25.9301 7.99976 26.6665V30.6665C7.99976 31.4029 8.59671 31.9999 9.33309 31.9999H15.9998C16.7361 31.9999 17.3331 31.4029 17.3331 30.6665V26.6665C17.3331 25.9301 16.7361 25.3332 15.9998 25.3332Z" stroke="#0C1521" stroke-width="2" stroke-linecap="round" stroke-linejoin="round"/>
</svg>
