<svg width="40" height="40" viewBox="0 0 40 40" fill="none" xmlns="http://www.w3.org/2000/svg">
<path d="M12.1667 24.5556V30.8889H33.8333V16.1111H29.5V14H34.6112C35.0943 14 35.2698 14.0486 35.4453 14.1414C35.6206 14.2311 35.7641 14.3701 35.857 14.5404C35.9502 14.7114 36 14.8824 36 15.3532V31.6468C36 32.1176 35.9502 32.2886 35.8548 32.4596C35.7629 32.6304 35.6201 32.7702 35.4453 32.8607C35.2698 32.9514 35.0943 33 34.6112 33H11.3888C10.9057 33 10.7302 32.9514 10.5547 32.8586C10.3794 32.7689 10.2359 32.6299 10.143 32.4596C10.052 32.2886 10 32.1176 10 31.6489V24.5556H12.1667Z" fill="black"/>
<path d="M29.8333 9.22222H8.16667V24.7778H29.8333V9.22222ZM32 8.42444V25.5756C32 26.0711 31.9502 26.2511 31.8548 26.4311C31.7629 26.6109 31.6201 26.7581 31.4453 26.8533C31.2698 26.9489 31.0943 27 30.6112 27H7.38883C6.90567 27 6.73017 26.9489 6.55467 26.8511C6.37937 26.7568 6.23589 26.6104 6.143 26.4311C6.052 26.2511 6 26.0711 6 25.5778V8.42444C6 7.92889 6.04983 7.74889 6.14517 7.56889C6.23713 7.38909 6.37985 7.24194 6.55467 7.14667C6.73017 7.05333 6.90567 7 7.38667 7H30.609C31.0922 7 31.2677 7.05111 31.4432 7.14889C31.6185 7.24321 31.7619 7.38959 31.8548 7.56889C31.948 7.74889 31.9978 7.92889 31.9978 8.42444H32Z" fill="black"/>
<path d="M19 22C17.6739 22 16.4021 21.4732 15.4645 20.5355C14.5268 19.5979 14 18.3261 14 17C14 15.6739 14.5268 14.4021 15.4645 13.4645C16.4021 12.5268 17.6739 12 19 12C20.3261 12 21.5979 12.5268 22.5355 13.4645C23.4732 14.4021 24 15.6739 24 17C24 18.3261 23.4732 19.5979 22.5355 20.5355C21.5979 21.4732 20.3261 22 19 22ZM19 20C19.7956 20 20.5587 19.6839 21.1213 19.1213C21.6839 18.5587 22 17.7956 22 17C22 16.2044 21.6839 15.4413 21.1213 14.8787C20.5587 14.3161 19.7956 14 19 14C18.2044 14 17.4413 14.3161 16.8787 14.8787C16.3161 15.4413 16 16.2044 16 17C16 17.7956 16.3161 18.5587 16.8787 19.1213C17.4413 19.6839 18.2044 20 19 20Z" fill="black"/>
</svg>
