<svg width="26" height="28" viewBox="0 0 26 28" fill="none" xmlns="http://www.w3.org/2000/svg">
<path d="M25.1034 20.9525L12.5674 28L0.0152044 20.9783L0.0133039 19.3595L0 7.04753L12.536 0L22.9197 5.80803L25.0882 7.02077L25.1034 20.9525Z" fill="url(#paint0_linear_479_4940)"/>
<path d="M2.50293 11.1675L2.51528 19.1343L12.6291 24.791L22.6003 19.1869L2.50293 11.1675Z" fill="url(#paint1_linear_479_4940)" style="mix-blend-mode:screen"/>
<path opacity="0.36" d="M5.57324 6.60914L12.6366 2.51315L19.5299 6.50669L5.57324 6.60914Z" fill="url(#paint2_linear_479_4940)" style="mix-blend-mode:screen"/>
<path opacity="0.3" d="M22.933 18.12L21.6853 18.8214L11.8461 24.3526L10.397 25.1675L0.0133039 19.3595L0 7.04753L12.536 0L22.9197 5.80803L22.933 18.12Z" fill="url(#paint3_linear_479_4940)" style="mix-blend-mode:screen"/>
<defs>
<linearGradient id="paint0_linear_479_4940" x1="12.5512" y1="27.0318" x2="12.5512" y2="2.15874" gradientUnits="userSpaceOnUse">
<stop stop-color="#F77E00"/>
<stop offset="1" stop-color="#F7BA0D"/>
</linearGradient>
<linearGradient id="paint1_linear_479_4940" x1="9.86092" y1="23.5311" x2="12.97" y2="13.2958" gradientUnits="userSpaceOnUse">
<stop stop-color="#FCD652"/>
<stop offset="0.35" stop-color="#675721"/>
<stop offset="0.65" stop-color="#29230D"/>
<stop offset="1"/>
</linearGradient>
<linearGradient id="paint2_linear_479_4940" x1="12.4989" y1="3.19243" x2="12.688" y2="16.0103" gradientUnits="userSpaceOnUse">
<stop stop-color="#FCD652"/>
<stop offset="0.35" stop-color="#675721"/>
<stop offset="0.65" stop-color="#29230D"/>
<stop offset="1"/>
</linearGradient>
<linearGradient id="paint3_linear_479_4940" x1="11.3349" y1="4.17259" x2="12.493" y2="82.8603" gradientUnits="userSpaceOnUse">
<stop stop-color="#FCD652"/>
<stop offset="0.35" stop-color="#675721"/>
<stop offset="0.65" stop-color="#29230D"/>
<stop offset="1"/>
</linearGradient>
</defs>
</svg>
