<svg width="232" height="137" viewBox="0 0 232 137" fill="none" xmlns="http://www.w3.org/2000/svg">
<path d="M127 43C127 43 128.545 57.4198 134.563 63.4375C140.58 69.4551 155 71 155 71C155 71 140.58 72.5449 134.563 78.5625C128.545 84.5802 127 99 127 99C127 99 125.455 84.5802 119.437 78.5625C113.42 72.5449 99 71 99 71C99 71 113.42 69.4551 119.437 63.4375C125.455 57.4198 127 43 127 43Z" fill="white" fill-opacity="0.25"/>
<path d="M204 58C204 58 205.545 72.4198 211.563 78.4375C217.58 84.4551 232 86 232 86C232 86 217.58 87.5449 211.563 93.5625C205.545 99.5802 204 114 204 114C204 114 202.455 99.5802 196.437 93.5625C190.42 87.5449 176 86 176 86C176 86 190.42 84.4551 196.437 78.4375C202.455 72.4198 204 58 204 58Z" fill="white" fill-opacity="0.1"/>
<path d="M28 54C28 54 29.5449 75.3722 35.5625 84.2912C41.5802 93.2102 56 95.5 56 95.5C56 95.5 41.5802 97.7898 35.5625 106.709C29.5449 115.628 28 137 28 137C28 137 26.4551 115.628 20.4375 106.709C14.4198 97.7898 0 95.5 0 95.5C0 95.5 14.4198 93.2102 20.4375 84.2912C26.4551 75.3722 28 54 28 54Z" fill="white" fill-opacity="0.1"/>
<path d="M171 0C171 0 171.883 15.9648 175.321 22.6272C178.76 29.2896 187 31 187 31C187 31 178.76 32.7104 175.321 39.3728C171.883 46.0352 171 62 171 62C171 62 170.117 46.0352 166.679 39.3728C163.24 32.7104 155 31 155 31C155 31 163.24 29.2896 166.679 22.6272C170.117 15.9648 171 0 171 0Z" fill="white" fill-opacity="0.1"/>
<path d="M77.5 25C77.5 25 78.6863 35.8149 83.307 40.3281C87.9276 44.8413 99 46 99 46C99 46 87.9276 47.1587 83.307 51.6719C78.6863 56.1851 77.5 67 77.5 67C77.5 67 76.3137 56.1851 71.693 51.6719C67.0724 47.1587 56 46 56 46C56 46 67.0724 44.8413 71.693 40.3281C76.3137 35.8149 77.5 25 77.5 25Z" fill="white" fill-opacity="0.1"/>
</svg>
