<svg width="16" height="20" viewBox="0 0 16 20" fill="none" xmlns="http://www.w3.org/2000/svg">
<path d="M1.94902 2.24742H3.27285V1.7316C3.27285 1.25497 3.46604 0.821956 3.7772 0.50838C4.08836 0.194694 4.51804 0 4.991 0H11.0091C11.4821 0 11.9117 0.194694 12.2229 0.508269C12.5341 0.821845 12.7273 1.25497 12.7273 1.73149V2.24731H14.0511C14.5875 2.24731 15.0749 2.4682 15.4279 2.82395C15.7809 3.17971 16.0001 3.67088 16.0001 4.21146V18.0357C16.0001 18.5763 15.7809 19.0675 15.4279 19.4232C15.0749 19.779 14.5875 19.9999 14.0511 19.9999H1.94902C1.4125 19.9999 0.925108 19.779 0.572204 19.4232C0.219189 19.0675 0 18.5763 0 18.0357V4.21146C0 3.67077 0.219189 3.1796 0.572204 2.82395C0.925218 2.4682 1.41261 2.24731 1.94902 2.24731V2.24742ZM4.20314 2.24742H11.797V1.7316C11.797 1.51371 11.7082 1.31524 11.5652 1.17116C11.4223 1.02708 11.2253 0.937618 11.0091 0.937618H4.991C4.77479 0.937618 4.57785 1.02708 4.43488 1.17116C4.29191 1.31524 4.20314 1.51371 4.20314 1.7316V2.24742ZM7.34458 16.9785C7.08772 16.9785 6.87944 16.7686 6.87944 16.5097C6.87944 16.2509 7.08772 16.041 7.34458 16.041H12.5052C12.7621 16.041 12.9704 16.2509 12.9704 16.5097C12.9704 16.7686 12.7621 16.9785 12.5052 16.9785H7.34458ZM3.1822 16.1147C2.99253 15.9407 2.97876 15.6448 3.15125 15.4537C3.32385 15.2625 3.61749 15.2486 3.80716 15.4225L4.61012 16.1601L5.99586 13.9558C6.13332 13.7374 6.42047 13.6727 6.63723 13.8112C6.854 13.9497 6.91821 14.2391 6.78075 14.4575L5.09906 17.1326C5.08463 17.1548 5.06843 17.1764 5.05004 17.1967C4.87744 17.3878 4.5838 17.4017 4.39413 17.2279L3.1822 16.1146V16.1147ZM7.34458 12.5578C7.08772 12.5578 6.87944 12.3479 6.87944 12.089C6.87944 11.8302 7.08772 11.6203 7.34458 11.6203H12.5052C12.7621 11.6203 12.9704 11.8302 12.9704 12.089C12.9704 12.3479 12.7621 12.5578 12.5052 12.5578H7.34458ZM3.1822 11.694C2.99253 11.52 2.97876 11.2241 3.15125 11.033C3.32385 10.8418 3.61749 10.8279 3.80716 11.0018L4.61012 11.7394L5.99586 9.53513C6.13332 9.31668 6.42047 9.25197 6.63723 9.3905C6.854 9.52903 6.91821 9.8184 6.78075 10.0369L5.09906 12.712C5.08463 12.7342 5.06843 12.7557 5.05004 12.776C4.87744 12.9671 4.5838 12.981 4.39413 12.8072L3.1822 11.6939V11.694ZM7.34458 8.1372C7.08772 8.1372 6.87944 7.92729 6.87944 7.66844C6.87944 7.40959 7.08772 7.19969 7.34458 7.19969H12.5052C12.7621 7.19969 12.9704 7.40959 12.9704 7.66844C12.9704 7.92729 12.7621 8.1372 12.5052 8.1372H7.34458ZM3.1822 7.27339C2.99253 7.09946 2.97876 6.80353 3.15125 6.61239C3.32385 6.42125 3.61749 6.40737 3.80716 6.5812L4.61012 7.31879L5.99586 5.11455C6.13332 4.8961 6.42047 4.83139 6.63723 4.96992C6.854 5.10845 6.91821 5.39782 6.78075 5.61627L5.09906 8.29138C5.08463 8.31357 5.06843 8.33511 5.05004 8.35542C4.87744 8.54656 4.5838 8.56044 4.39413 8.38661L3.1822 7.27328V7.27339ZM14.051 3.18482H1.94902C1.66925 3.18482 1.4147 3.30048 1.22988 3.48674C1.04506 3.67299 0.930285 3.92951 0.930285 4.21146V18.0357C0.930285 18.3176 1.04506 18.5742 1.22988 18.7605C1.4147 18.9467 1.66925 19.0624 1.94902 19.0624H14.0511C14.3308 19.0624 14.5854 18.9467 14.7702 18.7605C14.9551 18.5742 15.0698 18.3176 15.0698 18.0357V4.21146C15.0698 3.92951 14.9551 3.67299 14.7702 3.48674C14.5854 3.30048 14.3308 3.18482 14.0511 3.18482H14.051Z" fill="#5E5E5E"/>
</svg>
