<svg width="28" height="24" viewBox="0 0 28 24" fill="none" xmlns="http://www.w3.org/2000/svg">
<g clip-path="url(#clip0_734_922)">
<path d="M9 23.25C9 23.664 8.638 24 8.192 24H2.808C2.362 24 2 23.664 2 23.25C2 21.455 3.567 20 5.5 20C7.433 20 9 21.455 9 23.25ZM22.5 20C20.567 20 19 21.455 19 23.25C19 23.664 19.362 24 19.808 24H25.193C25.639 24 26.001 23.664 26.001 23.25C26.001 21.455 24.433 20 22.5 20ZM14 20C12.205 20 10.5 21.455 10.5 23.25C10.5 23.664 10.836 24 11.25 24H16.75C17.164 24 17.5 23.664 17.5 23.25C17.5 21.455 15.795 20 14 20ZM22.5 19C23.881 19 25 17.881 25 16.5C25 15.119 23.881 14 22.5 14C21.119 14 20 15.119 20 16.5C20 17.881 21.119 19 22.5 19ZM14 19C15.381 19 16.5 17.881 16.5 16.5C16.5 15.119 15.381 14 14 14C12.619 14 11.5 15.119 11.5 16.5C11.5 17.881 12.619 19 14 19ZM5.5 19C6.881 19 8 17.881 8 16.5C8 15.119 6.881 14 5.5 14C4.119 14 3 15.119 3 16.5C3 17.881 4.119 19 5.5 19ZM26 10.5V5.5C26 2.468 23.533 0 20.5 0H7.5C4.467 0 2 2.468 2 5.5V10.5C2 11.328 2.671 12 3.5 12C4.329 12 5 11.328 5 10.5V5.5C5 4.121 6.122 3 7.5 3H20.5C21.878 3 23 4.121 23 5.5V10.5C23 11.328 23.671 12 24.5 12C25.329 12 26 11.328 26 10.5Z" fill="#194DB6"/>
</g>
<defs>
<clipPath id="clip0_734_922">
<rect width="24" height="24" fill="white" transform="translate(2)"/>
</clipPath>
</defs>
</svg>
