<svg width="45" height="40" viewBox="0 0 45 40" fill="none" xmlns="http://www.w3.org/2000/svg">
<path d="M35.9615 20.9617V18.3596C35.9615 17.9066 35.5615 17.5393 35.0681 17.5393C33.2223 17.5393 31.5014 17.6823 29.8756 17.9743C28.9279 17.1341 27.7725 16.5244 26.5213 16.1912C27.8856 15.1369 28.7542 13.5585 28.7542 11.797C28.7542 8.6005 25.9485 6 22.4999 6C19.0513 6 16.2456 8.6005 16.2456 11.797C16.2456 13.5585 17.1141 15.1369 18.4785 16.1911C17.2273 16.5244 16.0719 17.1341 15.1242 17.9743C13.4984 17.6823 11.7776 17.5392 9.93176 17.5392C9.43833 17.5392 9.03829 17.9065 9.03829 18.3596V20.9617C7.99835 21.3003 7.25134 22.2121 7.25134 23.2815V24.9222C7.25134 25.9916 7.99835 26.9035 9.03829 27.2421V29.8442C9.03829 30.2972 9.43833 30.6645 9.93176 30.6645C14.6034 30.6645 18.4395 31.6808 22.0044 33.8628C22.3031 34.0455 22.6966 34.046 22.9956 33.8628C26.5604 31.6808 30.3965 30.6645 35.0682 30.6645C35.5616 30.6645 35.9617 30.2972 35.9617 29.8442V27.2421C37.0016 26.9035 37.7486 25.9916 37.7486 24.9222V23.2815C37.7485 22.2122 37.0015 21.3003 35.9615 20.9617ZM18.0325 11.797C18.0325 9.50516 20.0366 7.64066 22.4999 7.64066C24.9632 7.64066 26.9672 9.50516 26.9672 11.797C26.9672 14.0586 24.9632 15.8986 22.4999 15.8986C20.0366 15.8986 18.0325 14.0586 18.0325 11.797ZM9.9317 25.7426C9.43904 25.7426 9.03823 25.3746 9.03823 24.9223V23.2816C9.03823 22.8293 9.43904 22.4613 9.9317 22.4613C10.4244 22.4613 10.8252 22.8293 10.8252 23.2816V24.9223C10.8252 25.3746 10.4244 25.7426 9.9317 25.7426ZM21.6064 31.7083C18.3629 30.0052 14.8824 29.1445 10.8252 29.0357V27.2422C11.8651 26.9035 12.6121 25.9917 12.6121 24.9223V23.2816C12.6121 22.2122 11.8651 21.3003 10.8252 20.9617V19.1916C15.0234 19.3022 18.3979 20.2099 21.6064 22.0855V31.7083ZM22.4999 20.6642C20.8508 19.7088 19.1342 18.9814 17.3018 18.4702C18.3087 17.8694 19.4939 17.5393 20.7129 17.5393H24.2868C25.5058 17.5393 26.6911 17.8694 27.698 18.4702C25.8655 18.9814 24.1489 19.7088 22.4999 20.6642ZM34.1746 29.0357C30.1175 29.1445 26.6368 30.0055 23.3934 31.7084V22.0861C26.6019 20.2103 29.9762 19.3021 34.1746 19.1916V20.9617C33.1346 21.3003 32.3876 22.2122 32.3876 23.2816V24.9223C32.3876 25.9917 33.1346 26.9035 34.1746 27.2422V29.0357ZM35.9615 24.9223C35.9615 25.3746 35.5607 25.7426 35.0681 25.7426C34.5754 25.7426 34.1746 25.3746 34.1746 24.9223V23.2816C34.1746 22.8293 34.5754 22.4613 35.0681 22.4613C35.5607 22.4613 35.9615 22.8293 35.9615 23.2816V24.9223Z" fill="black"/>
</svg>
