<svg width="79" height="62" viewBox="0 0 79 62" fill="none" xmlns="http://www.w3.org/2000/svg">
<g clip-path="url(#clip0_654_735)">
<path d="M29.646 61.8657H23.4897V53.847H29.4793V55.4797H25.2502V57.0297H29.2293V58.6003H25.2502V60.2123H29.6356V61.8657H29.646Z" fill="#FDD22C"/>
<path d="M36.7293 53.8677V61.876H35.2397L35.1356 61.1527C34.6043 61.8243 33.9585 61.9793 33.2397 61.9793C31.5627 61.9793 30.4272 60.8117 30.4272 59.0447C30.4272 57.2777 31.5939 56.0997 33.271 56.0997C33.9377 56.0997 34.5731 56.3063 35.0627 56.9057V53.8677H36.7397H36.7293ZM32.1043 59.0447C32.1043 59.861 32.6147 60.5017 33.5002 60.5017C34.2502 60.5017 35.0314 60.1193 35.0314 59.0447C35.0314 58.094 34.2606 57.5877 33.5002 57.5877C32.646 57.5877 32.1043 58.1973 32.1043 59.0447Z" fill="#FDD22C"/>
<path d="M39.7293 56.2133V59.1997C39.7293 60.0677 40.1147 60.512 40.9064 60.512C41.6772 60.5223 42.1981 59.861 42.1981 59.1273V56.203H43.8335V61.8553H42.3335L42.271 61.1113C41.7606 61.783 41.1147 61.9793 40.4272 61.969C39.146 61.969 38.0522 61.4007 38.0522 59.1997V56.203H39.7293V56.2133Z" fill="#FDD22C"/>
<path d="M50.2603 61.1217C49.5832 61.783 48.7603 61.9897 48.0311 61.9897C46.3644 61.9897 44.9165 61.0803 44.9165 59.0447C44.9165 57.1433 46.354 56.079 48.0207 56.079C48.854 56.079 49.5103 56.265 50.0832 56.854L49.1561 57.8977C48.8123 57.6393 48.4269 57.567 48.0832 57.567C47.2498 57.567 46.5832 58.1043 46.5832 59.0447C46.5832 59.985 47.2707 60.4603 48.0519 60.4603C48.4165 60.4603 48.9269 60.3157 49.2082 60.0367L50.2603 61.1113V61.1217Z" fill="#FDD22C"/>
<path d="M55.3644 56.2133H56.9269V61.8657H55.4269L55.3332 61.1527C54.9478 61.752 54.1353 61.9793 53.5832 61.9897C51.8748 62 50.6353 60.9047 50.6353 59.0343C50.6353 57.164 51.9373 56.0583 53.6248 56.079C54.3436 56.079 55.0103 56.358 55.3123 56.854L55.3748 56.203L55.3644 56.2133ZM52.2915 59.0447C52.2915 59.985 52.9582 60.5327 53.7915 60.5327C54.729 60.5327 55.3019 59.8093 55.3019 59.0963C55.3019 58.28 54.7811 57.536 53.7915 57.536C52.9582 57.536 52.2915 58.094 52.2915 59.0343V59.0447Z" fill="#FDD22C"/>
<path d="M60.5937 54.6633V56.2443H62.0312V57.6187H60.5729V59.7473C60.5729 60.3467 60.9063 60.5017 61.2188 60.5017C61.4167 60.5017 61.7292 60.4603 61.9063 60.3673L62.2917 61.7417C61.875 61.907 61.5417 61.969 61.0938 61.9897C59.8542 62.0517 58.9271 61.504 58.9271 59.7473V57.6187H57.9062V56.2443H58.9271V54.8493L60.5937 54.6633Z" fill="#FDD22C"/>
<path d="M64.9373 54.715C64.9373 55.955 63.0415 55.955 63.0415 54.715C63.0415 53.475 64.9373 53.475 64.9373 54.715ZM63.1665 56.203V61.8657H64.8332V56.203H63.1665Z" fill="#FDD22C"/>
<path d="M65.896 59.055C65.896 57.35 67.1147 56.0893 69.0106 56.0893C70.9064 56.0893 72.1356 57.35 72.1356 59.055C72.1356 60.76 70.9481 62 69.0106 62C67.0731 62 65.896 60.76 65.896 59.055ZM70.4585 59.055C70.4585 58.342 70.021 57.567 69.0106 57.567C68.0002 57.567 67.5835 58.342 67.5835 59.055C67.5835 59.768 68.0106 60.5327 69.0106 60.5327C70.0106 60.5327 70.4585 59.799 70.4585 59.055Z" fill="#FDD22C"/>
<path d="M77.3229 61.8657V58.8793C77.3229 58.0113 76.9375 57.567 76.1458 57.567C75.375 57.5567 74.8542 58.218 74.8542 58.9517V61.876H73.2188V56.2237H74.7188L74.7813 56.947C75.2917 56.296 75.9375 56.079 76.625 56.0893C77.9062 56.0893 79 56.6887 79 58.8793V61.876H77.3229V61.8657Z" fill="#FDD22C"/>
<path d="M14.9688 60.667L14.0313 59.7473C5.75004 51.5943 2.05213 43.6893 3.03129 36.2493C3.56254 32.1883 5.56254 28.2823 8.80213 24.9447C11.2292 22.444 13.5 21.142 13.5938 21.0903L14.3542 20.6563L15.0625 21.173C21.5834 25.9677 25.1042 31.6303 25.5209 37.9957C25.8438 42.8523 24.2709 48.1637 21 53.351C18.5521 57.226 16.0313 59.6647 15.9167 59.768L14.9688 60.6773V60.667ZM14.198 23.87C13.4063 24.4177 12.0625 25.42 10.6771 26.8563C7.83338 29.8117 6.15629 33.0977 5.69796 36.611C4.88546 42.8833 8.00004 49.7033 14.9584 56.8643C15.875 55.8517 17.3334 54.1053 18.75 51.8527C20.8125 48.577 23.1875 43.5447 22.8334 38.1403C22.4792 32.8393 19.573 28.0447 14.198 23.8597V23.87Z" fill="#194DB6"/>
<path d="M14.7498 46.8823C13.479 46.8823 12.1665 46.7893 10.8436 46.6033C7.14567 46.0867 4.59359 45.0223 4.479 44.981L5.52067 42.5217C5.52067 42.5217 7.92692 43.5033 11.2915 43.9683C14.3332 44.392 18.854 44.4643 23.0728 42.4493L24.2394 44.857C21.4269 46.2003 18.1978 46.8823 14.7394 46.8823H14.7498Z" fill="#194DB6"/>
<path d="M13.6981 52.855C10.7606 52.855 8.54184 52.2867 8.36476 52.2453C7.64601 52.0593 7.21893 51.3257 7.40643 50.6127C7.59393 49.8997 8.33351 49.476 9.05226 49.662C9.11476 49.6827 15.6877 51.3257 20.5523 48.6287C21.1981 48.267 22.021 48.4943 22.3856 49.1453C22.7502 49.786 22.521 50.6023 21.8648 50.964C19.1877 52.4417 16.1877 52.855 13.6981 52.855Z" fill="#194DB6"/>
<path d="M29.3957 50.8503C27.677 50.8503 26.5832 48.8663 25.8957 47.337C24.8228 44.9603 23.7082 41.1577 22.5832 36.0427C22.427 35.3193 22.8853 34.6063 23.6145 34.4513C24.3437 34.2963 25.0624 34.751 25.2187 35.4743C26.1666 39.804 27.1041 43.1417 27.9895 45.384C28.6145 46.9547 29.0832 47.6677 29.3437 47.9777C29.677 47.3783 30.0207 46.0557 30.0103 45.0327C30.0103 44.454 30.2812 43.9063 30.7499 43.5653C31.2187 43.2243 31.8228 43.121 32.3749 43.2967C37.4895 44.8777 41.5832 45.1463 44.5312 44.0923C46.4791 43.4 47.8957 41.5193 48.2291 39.1943C48.5624 36.89 47.7395 34.7097 46.0937 33.5213C45.6353 33.1907 45.1666 32.9013 44.6978 32.643C41.6249 34.658 37.6874 36.3527 33.1145 36.3527C32.4791 36.3527 31.8332 36.3217 31.177 36.2493C30.2812 36.1563 27.5728 35.8773 27.0937 33.9553C26.927 33.3043 26.9478 32.0127 28.9062 30.7107C30.8645 29.4087 34.0207 28.52 37.1562 28.396C39.1249 28.3237 41.7603 28.5097 44.4166 29.5637C45.0207 29.109 45.5832 28.6543 46.0937 28.21C48.7082 25.916 50.3541 22.8677 50.7082 19.623C51.0832 16.213 50.1041 13.4643 47.802 11.47C44.3645 8.48367 38.6249 7.82233 34.9791 8.72133C24.4791 11.2943 15.427 22.8987 15.3332 23.0227C14.8853 23.6117 14.0312 23.715 13.4478 23.2707C12.8541 22.8263 12.7395 21.9893 13.1978 21.4003C13.2916 21.2763 15.6353 18.2487 19.3957 14.849C24.4895 10.2403 29.5207 7.30567 34.3437 6.12767C38.7603 5.04267 45.4166 5.84867 49.5832 9.46533C52.5416 12.0383 53.8645 15.655 53.3853 19.9227C52.9582 23.8287 50.9999 27.4867 47.8749 30.2147C47.6041 30.4523 47.3332 30.6797 47.0416 30.9173C47.2603 31.0517 47.4687 31.2067 47.6874 31.3617C50.1457 33.139 51.3749 36.2907 50.9062 39.5767C50.427 42.8833 48.3332 45.5803 45.4478 46.6137C42.1457 47.7917 37.8332 47.6367 32.6249 46.1693C32.4062 47.895 31.6562 50.6333 29.6457 50.8503C29.5624 50.8503 29.4791 50.8607 29.3957 50.8607V50.8503ZM29.9374 33.2733C30.2082 33.3767 30.677 33.5007 31.4582 33.5833C35.2812 33.976 38.6874 32.9427 41.4895 31.434C37.9374 30.6073 34.6666 31.31 33.4687 31.6303C31.5103 32.1573 30.3957 32.86 29.9478 33.2733H29.9374Z" fill="#194DB6"/>
<path d="M8.15618 21.266C7.58327 21.266 6.99993 21.204 6.42702 21.08C2.03118 20.1397 -0.770901 15.8307 0.187433 11.47C1.13535 7.10934 5.48952 4.32967 9.88535 5.28034C12.0104 5.735 13.8333 6.98534 15.0104 8.804C16.1874 10.6227 16.5833 12.7823 16.1249 14.8903C15.7499 16.6057 14.8541 18.1143 13.5208 19.2613L12.7916 19.8917L11.9583 19.406C11.9583 19.406 11.927 19.3853 11.8958 19.3853C11.6562 19.3337 11.1145 19.623 10.6666 20.4393L10.3645 20.9767L9.74993 21.1007C9.21868 21.204 8.68743 21.266 8.14577 21.266H8.15618ZM8.15618 7.76034C5.64577 7.76034 3.37493 9.49634 2.82285 12.028C2.18743 14.942 4.06243 17.8353 6.99993 18.4657C7.56243 18.5897 8.12493 18.6207 8.67702 18.569C9.62493 17.2463 10.9687 16.554 12.2708 16.74C12.8749 16.058 13.2916 15.2313 13.4895 14.322C13.802 12.9063 13.5312 11.4597 12.7395 10.2403C11.9479 9.021 10.7291 8.184 9.30202 7.874C8.9166 7.79134 8.53118 7.75 8.14577 7.75L8.15618 7.76034Z" fill="#194DB6"/>
<path d="M8.25022 6.603L8.22939 5.69367C8.19814 4.01967 8.56272 2.33533 9.29189 0.826667L9.68772 0L12.1148 1.147L11.719 1.97367C11.1669 3.11033 10.8961 4.38133 10.9169 5.642L10.9377 6.55133L8.23981 6.603H8.25022Z" fill="#194DB6"/>
<path d="M2.50016 8.742L2.0835 7.936C1.31266 6.448 0.885579 4.774 0.864746 3.1V2.19067L3.54183 2.15967V3.069C3.57308 4.32967 3.88558 5.59033 4.46891 6.71667L4.88558 7.52267L2.48975 8.75233L2.50016 8.742Z" fill="#194DB6"/>
<path d="M13.4377 37.8407C12.6043 37.8407 11.7397 37.7683 10.8543 37.6133C7.0835 36.9623 4.26058 35.1437 4.146 35.0713L5.62516 32.8393C5.62516 32.8393 8.15641 34.4617 11.396 34.999C15.5314 35.681 18.9377 34.348 21.5314 31.0413L23.6564 32.6843C20.9897 36.0943 17.4897 37.851 13.4377 37.851V37.8407Z" fill="#194DB6"/>
<path d="M59.2812 36.8383C60.0833 36.8383 60.8229 36.9727 61.5 37.231C62.1771 37.4893 62.7708 37.8717 63.2708 38.378C63.7708 38.8843 64.1562 39.5043 64.4479 40.2277C64.7292 40.9613 64.875 41.7983 64.875 42.7387C64.875 43.1107 64.8333 43.3587 64.75 43.4723C64.6667 43.586 64.5208 43.6583 64.3021 43.6583H55.3854C55.4062 44.485 55.5208 45.2083 55.7292 45.8283C55.9375 46.4483 56.2292 46.9547 56.5938 47.3577C56.9583 47.7607 57.3958 48.0707 57.9062 48.267C58.4167 48.4737 58.9792 48.5667 59.6146 48.5667C60.1979 48.5667 60.6979 48.5047 61.125 48.3703C61.5521 48.236 61.9167 48.0913 62.2187 47.926C62.5208 47.7607 62.7813 47.616 62.9896 47.4817C63.1979 47.3473 63.375 47.2853 63.5313 47.2853C63.6354 47.2853 63.7188 47.306 63.7917 47.3473C63.8646 47.3887 63.9271 47.4403 63.9792 47.5127L64.6562 48.3807C64.3542 48.732 64 49.0317 63.6042 49.29C63.1979 49.5483 62.7708 49.755 62.3021 49.9203C61.8438 50.0857 61.3542 50.2097 60.8646 50.2923C60.3646 50.375 59.8854 50.4163 59.3958 50.4163C58.4688 50.4163 57.6146 50.2613 56.8333 49.9617C56.0521 49.6517 55.375 49.2073 54.8125 48.608C54.2396 48.0087 53.8021 47.2647 53.4792 46.3863C53.1562 45.508 53 44.4953 53 43.3483C53 42.4287 53.1458 41.571 53.4271 40.7753C53.7083 39.9797 54.125 39.2873 54.6667 38.6983C55.2083 38.1093 55.8646 37.6443 56.6458 37.3137C57.4271 36.983 58.3021 36.8177 59.2708 36.8177L59.2812 36.8383ZM59.3229 38.5743C58.2083 38.5743 57.3229 38.8947 56.6771 39.5457C56.0312 40.1967 55.625 41.0853 55.4583 42.2117H62.7187C62.7187 41.6847 62.6458 41.1887 62.4896 40.7443C62.3333 40.3 62.1146 39.9177 61.8229 39.5973C61.5312 39.277 61.1771 39.029 60.75 38.843C60.3229 38.6673 59.8542 38.5743 59.3229 38.5743Z" fill="#194DB6"/>
<path d="M59.4064 50.6023C58.4689 50.6023 57.5835 50.4473 56.7918 50.1373C55.9897 49.8273 55.2918 49.352 54.7189 48.7423C54.1356 48.1327 53.6877 47.368 53.3543 46.4793C53.0314 45.5907 52.8647 44.5573 52.8647 43.4C52.8647 42.47 53.0106 41.5813 53.3022 40.7753C53.5939 39.959 54.021 39.246 54.5731 38.6467C55.1252 38.0473 55.8022 37.5617 56.5939 37.231C57.3856 36.89 58.2918 36.7143 59.271 36.7143C60.0835 36.7143 60.8543 36.8487 61.5418 37.1173C62.2397 37.386 62.8543 37.7787 63.3647 38.2953C63.8752 38.812 64.2814 39.4527 64.5731 40.1967C64.8647 40.9407 65.0002 41.7983 65.0002 42.7593C65.0002 43.1623 64.9585 43.431 64.8543 43.5757C64.7397 43.741 64.5522 43.8237 64.2814 43.8237H55.521C55.5522 44.578 55.6564 45.2393 55.8543 45.8077C56.0522 46.407 56.3335 46.903 56.6877 47.2957C57.0418 47.678 57.4585 47.9777 57.9481 48.174C58.4377 48.3703 58.9897 48.4633 59.5939 48.4633C60.1564 48.4633 60.6564 48.4013 61.0627 48.2773C61.4793 48.1533 61.8335 48.0087 62.1356 47.8537C62.4377 47.6987 62.6877 47.5437 62.896 47.4197C63.1356 47.275 63.3335 47.2027 63.521 47.2027C63.646 47.2027 63.7606 47.2337 63.8543 47.2853C63.9481 47.337 64.021 47.4093 64.0939 47.492L64.8439 48.4427L64.771 48.5357C64.4585 48.8973 64.0939 49.2177 63.6772 49.476C63.2606 49.7343 62.8127 49.9513 62.3439 50.127C61.8752 50.2923 61.3856 50.4267 60.8856 50.5093C60.3856 50.592 59.8856 50.6333 59.396 50.6333L59.4064 50.6023ZM59.2814 36.983C58.3335 36.983 57.4689 37.1483 56.7189 37.4687C55.9689 37.789 55.3127 38.2437 54.7918 38.8223C54.271 39.401 53.8543 40.083 53.5835 40.858C53.3022 41.633 53.1668 42.4907 53.1668 43.3897C53.1668 44.516 53.3231 45.5183 53.6356 46.376C53.9481 47.2337 54.3856 47.957 54.9377 48.546C55.4897 49.1247 56.1564 49.569 56.9064 49.8687C57.6668 50.1683 58.5106 50.3233 59.4168 50.3233C59.8856 50.3233 60.3752 50.282 60.8543 50.1993C61.3439 50.1167 61.8127 49.9927 62.271 49.8377C62.7189 49.6723 63.146 49.4657 63.5418 49.2177C63.896 48.9903 64.2189 48.7217 64.4897 48.422L63.8856 47.647C63.8439 47.585 63.7918 47.5437 63.7397 47.5127C63.6877 47.4817 63.6252 47.4713 63.5522 47.4713C63.4272 47.4713 63.271 47.5333 63.0835 47.647C62.8752 47.7813 62.6147 47.926 62.3022 48.0913C61.9897 48.2567 61.6147 48.4117 61.1772 48.546C60.7397 48.6803 60.2189 48.7527 59.6252 48.7527C58.9793 48.7527 58.396 48.6493 57.8647 48.4427C57.3335 48.236 56.8752 47.9157 56.5002 47.492C56.1252 47.0683 55.8231 46.5413 55.6043 45.911C55.396 45.2807 55.271 44.5367 55.2606 43.6997V43.555H64.3127C64.4793 43.555 64.5939 43.5137 64.646 43.4413C64.6877 43.3897 64.7397 43.2243 64.7397 42.78C64.7397 41.8603 64.6043 41.0233 64.3231 40.3207C64.0522 39.618 63.6668 39.0083 63.1877 38.5227C62.7085 38.037 62.1252 37.6547 61.4689 37.4067C60.8022 37.1483 60.0731 37.0243 59.3022 37.0243L59.2814 36.983ZM62.8647 42.3563H55.2918L55.3127 42.191C55.4793 41.0337 55.9064 40.114 56.5731 39.4423C57.2502 38.7707 58.1772 38.4297 59.3231 38.4297C59.8647 38.4297 60.3647 38.5227 60.8022 38.7087C61.2397 38.8947 61.6147 39.1633 61.9272 39.494C62.2293 39.8247 62.4689 40.2277 62.6252 40.6927C62.7814 41.1473 62.8647 41.664 62.8647 42.2013V42.346V42.3563ZM55.6252 42.067H62.5731C62.5627 41.6123 62.4897 41.1783 62.3543 40.7857C62.2085 40.362 61.9897 39.99 61.7189 39.6903C61.4481 39.3907 61.1043 39.1427 60.6981 38.9773C60.2918 38.8017 59.8335 38.719 59.3335 38.719C58.2606 38.719 57.4064 39.029 56.7814 39.649C56.1877 40.238 55.8022 41.0543 55.6252 42.067Z" fill="#194DB6"/>
<path d="M73.1665 36.8383C73.9686 36.8383 74.7082 36.9727 75.3853 37.231C76.0623 37.4893 76.6561 37.8717 77.1561 38.378C77.6561 38.8843 78.0415 39.5043 78.3332 40.2277C78.6144 40.9613 78.7603 41.7983 78.7603 42.7387C78.7603 43.1107 78.7186 43.3587 78.6353 43.4723C78.5519 43.586 78.4061 43.6583 78.1873 43.6583H69.2707C69.2915 44.485 69.4061 45.2083 69.6144 45.8283C69.8228 46.4483 70.1144 46.9547 70.479 47.3577C70.8436 47.7607 71.2811 48.0707 71.7915 48.267C72.3019 48.4737 72.8644 48.5667 73.4998 48.5667C74.0832 48.5667 74.5832 48.5047 75.0103 48.3703C75.4373 48.236 75.8019 48.0913 76.104 47.926C76.4061 47.7607 76.6665 47.616 76.8748 47.4817C77.0832 47.3473 77.2603 47.2853 77.4165 47.2853C77.5207 47.2853 77.604 47.306 77.6769 47.3473C77.7498 47.3887 77.8123 47.4403 77.8644 47.5127L78.5415 48.3807C78.2394 48.732 77.8853 49.0317 77.4894 49.29C77.0832 49.5483 76.6561 49.755 76.1873 49.9203C75.729 50.0857 75.2394 50.2097 74.7498 50.2923C74.2498 50.375 73.7707 50.4163 73.2811 50.4163C72.354 50.4163 71.4998 50.2613 70.7186 49.9617C69.9373 49.6517 69.2603 49.2073 68.6978 48.608C68.1248 48.0087 67.6873 47.2647 67.3644 46.3863C67.0415 45.508 66.8853 44.4953 66.8853 43.3483C66.8853 42.4287 67.0311 41.571 67.3123 40.7753C67.5936 39.9797 68.0103 39.2873 68.5519 38.6983C69.0936 38.1093 69.7498 37.6443 70.5311 37.3137C71.3123 36.983 72.1873 36.8177 73.1561 36.8177L73.1665 36.8383ZM73.2082 38.5743C72.0936 38.5743 71.2082 38.8947 70.5623 39.5457C69.9165 40.1967 69.5103 41.0853 69.3436 42.2117H76.604C76.604 41.6847 76.5311 41.1887 76.3748 40.7443C76.2186 40.3 75.9998 39.9177 75.7082 39.5973C75.4165 39.277 75.0623 39.029 74.6353 38.843C74.2082 38.6673 73.7394 38.5743 73.2082 38.5743Z" fill="#194DB6"/>
<path d="M73.2917 50.6023C72.3542 50.6023 71.4687 50.4473 70.6771 50.1373C69.875 49.8273 69.1771 49.352 68.6042 48.7423C68.0208 48.1327 67.5729 47.368 67.2396 46.4793C66.9167 45.5907 66.75 44.5573 66.75 43.4C66.75 42.47 66.8958 41.5813 67.1875 40.7753C67.4792 39.959 67.9062 39.246 68.4583 38.6467C69.0104 38.0473 69.6875 37.5617 70.4792 37.231C71.2708 36.89 72.1771 36.7143 73.1563 36.7143C73.9688 36.7143 74.7396 36.8487 75.4271 37.1173C76.125 37.386 76.7396 37.7787 77.25 38.2953C77.7604 38.812 78.1667 39.4527 78.4583 40.1967C78.75 40.9407 78.8854 41.7983 78.8854 42.7593C78.8854 43.1623 78.8437 43.431 78.7396 43.5757C78.625 43.741 78.4375 43.8237 78.1667 43.8237H69.4062C69.4375 44.578 69.5417 45.2393 69.7396 45.8077C69.9375 46.407 70.2187 46.903 70.5729 47.2957C70.9271 47.678 71.3437 47.9777 71.8333 48.174C72.3229 48.3703 72.875 48.4633 73.4792 48.4633C74.0417 48.4633 74.5417 48.4013 74.9479 48.2773C75.3646 48.1533 75.7188 48.0087 76.0208 47.8537C76.3229 47.6883 76.5729 47.5437 76.7812 47.4197C77.0208 47.275 77.2187 47.2027 77.4062 47.2027C77.5312 47.2027 77.6458 47.2337 77.7396 47.2853C77.8333 47.337 77.9062 47.4093 77.9792 47.492L78.7292 48.4427L78.6562 48.5357C78.3438 48.8973 77.9792 49.2177 77.5729 49.476C77.1562 49.7343 76.7083 49.9513 76.2396 50.127C75.7708 50.2923 75.2812 50.4267 74.7812 50.5093C74.2812 50.592 73.7812 50.6333 73.2917 50.6333V50.6023ZM73.1667 36.983C72.2187 36.983 71.3542 37.1483 70.6042 37.4687C69.8542 37.789 69.1979 38.2437 68.6771 38.8223C68.1562 39.401 67.7396 40.083 67.4687 40.858C67.1875 41.633 67.0521 42.4907 67.0521 43.3897C67.0521 44.516 67.2083 45.5183 67.5208 46.376C67.8333 47.2337 68.2708 47.957 68.8229 48.546C69.375 49.1247 70.0417 49.569 70.7917 49.8687C71.5521 50.1683 72.3958 50.3233 73.3021 50.3233C73.7708 50.3233 74.2604 50.282 74.7396 50.1993C75.2187 50.1167 75.6979 49.9927 76.1562 49.8377C76.6042 49.6723 77.0312 49.4657 77.4271 49.2177C77.7812 48.9903 78.1042 48.7217 78.375 48.422L77.7708 47.647C77.7292 47.585 77.6771 47.5437 77.625 47.5127C77.5729 47.4817 77.5104 47.4713 77.4375 47.4713C77.3125 47.4713 77.1562 47.5333 76.9687 47.647C76.7604 47.7813 76.5 47.926 76.1875 48.0913C75.875 48.2567 75.5 48.4117 75.0625 48.546C74.625 48.6803 74.1042 48.7527 73.5104 48.7527C72.8646 48.7527 72.2812 48.6493 71.75 48.4427C71.2187 48.236 70.7604 47.9157 70.3854 47.492C70.0104 47.0683 69.7083 46.5413 69.4896 45.911C69.2812 45.2807 69.1562 44.5367 69.1458 43.6997V43.555H78.1979C78.3646 43.555 78.4792 43.5137 78.5312 43.4413C78.5729 43.3897 78.625 43.2243 78.625 42.78C78.625 41.8603 78.4896 41.0233 78.2083 40.3207C77.9375 39.618 77.5521 39.0083 77.0729 38.5227C76.5937 38.037 76.0104 37.6547 75.3542 37.4067C74.6875 37.1483 73.9583 37.0243 73.1875 37.0243L73.1667 36.983ZM76.75 42.3563H69.1771L69.1979 42.191C69.3646 41.0337 69.7917 40.114 70.4583 39.4423C71.1354 38.7707 72.0625 38.4297 73.2083 38.4297C73.75 38.4297 74.25 38.5227 74.6875 38.7087C75.125 38.8947 75.5 39.1633 75.8125 39.494C76.1146 39.8247 76.3542 40.2277 76.5104 40.6927C76.6667 41.1473 76.75 41.664 76.75 42.2013V42.346V42.3563ZM69.5104 42.067H76.4583C76.4479 41.6123 76.375 41.1783 76.2396 40.7857C76.0938 40.362 75.875 39.99 75.6042 39.6903C75.3333 39.3907 74.9896 39.1427 74.5833 38.9773C74.1771 38.8017 73.7187 38.719 73.2187 38.719C72.1458 38.719 71.2917 39.029 70.6667 39.649C70.0729 40.238 69.6875 41.0543 69.5104 42.067Z" fill="#194DB6"/>
</g>
<defs>
<clipPath id="clip0_654_735">
<rect width="79" height="62" fill="white"/>
</clipPath>
</defs>
</svg>
