<?xml version="1.0" encoding="UTF-8"?><svg id="Layer_3" xmlns="http://www.w3.org/2000/svg" viewBox="0 0 1080 1080"><rect x="-94.6" y="-11.71" width="1243.91" height="1219.62" fill="#194db6" stroke="#fdd22c" stroke-miterlimit="10" stroke-width="1.07"/><path d="M378.76,460.34c-47.48,32.98-226.13,181.9,6.56,424.3,7.03,7.32,18.82,7.13,25.57-.45,47.64-53.46,202.09-255.43-11.51-423.28-5.99-4.7-14.36-4.91-20.62-.57Z" fill="none" stroke="#fdd22c" stroke-miterlimit="10" stroke-width="24.35"/><path d="M277.64,719.62s120.84,44.86,224.74-10.9" fill="none" stroke="#fdd22c" stroke-miterlimit="10" stroke-width="30.62"/><path d="M317.36,797.16s82.4,31.59,151.28,2.43" fill="none" stroke="#fdd22c" stroke-linecap="round" stroke-miterlimit="10" stroke-width="24.88"/><path d="M505.69,617.67c56.59,259.32,90.17,148.88,89.94,112.64-.02-3.92,3.72-6.77,7.46-5.61,73.8,22.99,123.5,21.48,156.96,9.45,62.69-22.54,76.75-117.65,22.94-156.92-115.88-84.57-301.37,18.25-187.77,30.12,82.49,8.62,149.24-34.34,188.89-69.31,33.57-29.61,56.19-70.23,61.06-114.72,14.75-134.78-130.71-169.62-209.66-150.15-133.81,33.01-245.9,179.67-245.9,179.67" fill="none" stroke="#fdd22c" stroke-linecap="round" stroke-miterlimit="10" stroke-width="25.51"/><path d="M396.1,360.59c-3.89,17.94-13.35,33.21-26.14,44.36-1.7-.99-3.53-1.67-5.47-2.09-11.85-2.57-24.45,6.1-32.54,20.81-10.74,2.18-22.08,2.21-33.45-.26-44.34-9.61-72.44-53.26-62.83-97.6,9.6-44.28,53.26-72.44,97.6-62.83,44.28,9.6,72.43,53.32,62.83,97.6Z" fill="none" stroke="#fdd22c" stroke-miterlimit="10" stroke-width="24.35"/><path d="M333.27,262.99l-.2-11.07c-.33-17.94,3.52-35.72,11.25-51.92l4.77-10" fill="none" stroke="#fdd22c" stroke-miterlimit="10" stroke-width="24.35"/><path d="M262.1,281.83l-5.08-9.84c-8.23-15.95-12.64-33.59-12.87-51.54l-.14-11.08" fill="none" stroke="#fdd22c" stroke-miterlimit="10" stroke-width="24.35"/><path d="M276.5,595.69s128.12,84.42,213.46-25.49" fill="none" stroke="#fdd22c" stroke-miterlimit="10" stroke-width="30.62"/></svg>